<svg id="Layer_1" xmlns="http://www.w3.org/2000/svg" viewBox="0 0 50.7 56.1"><style>.st0{fill:#FFFFFF;enable-background:new ;}</style><title>icon-github</title><path class="st0" d="M36.3 54.8c-.2-12.4 1-13-2.2-17.4 9.4-.7 13.7-5 15.6-10.4S51.3 14 47 9.8c1.2-3.2 1-6.7-.5-9.8-3.1-.1-6.4 1.2-10.1 3.9-6-1.7-12.4-1.7-18.5 0-3.8-2.8-7-4-10-3.9-1.5 2.9-1.6 6.2-.5 9.7-3.7 3.9-4.6 9-3.4 15 1.6 6.6 5.6 11.8 16.3 13-1.2 1.3-2.1 2.9-2.4 4.7-1.3 1.2-3.8 1.4-6.4.9-3.1-.9-3.9-4.7-6.5-6.3-1.2-.9-2.7-1.4-4.2-1.2-1 .2-1 .8 0 1.6 4.2 2.8 4.4 5.4 5.4 7.1 1.6 2.4 4.3 3.7 7.2 3.7 1.5 0 3.1-.1 4.6-.4l-.1 7.1c-.1 1-.8 1.4-1.9 1.4h21.8c-.9-.2-1.5-.7-1.5-1.5zM4 37.4c-.2.2-.4.2-.6 0-.2-.1-.3-.4-.2-.6.2-.2.4-.2.6 0 .2.2.3.4.2.6zm1.5 1.4c-.3.2-.5.2-.7 0-.2-.2-.2-.5-.1-.7.2-.2.5-.1.7.1.2.1.2.4.1.6zM6.8 41c-.4.1-.7-.2-.8-.5 0-.2 0-.5.2-.6.4-.1.8.2.8.5.1.3 0 .5-.2.6zm2.1 2c-.2.2-.6.2-.8 0-.3-.2-.3-.5-.2-.8.3-.2.6-.2.9.1.2.1.3.5.1.7zm2 1.7c-.3-.2-.4-.5-.2-.8.2-.3.5-.4.8-.2.2.1.3.4.3.7-.2.3-.6.4-.9.3zm3.1.4c-.3.1-.7 0-.8-.3-.1-.3 0-.7.3-.8.1-.1.3-.1.5 0 .3-.1.6.1.7.5.1.3-.1.6-.5.7 0 0-.1 0-.2-.1zm2.8-.4c-.4 0-.8-.2-.8-.5s.3-.5.8-.5.8.2.8.5-.4.6-.8.5z"/></svg>