<?xml version="1.0" encoding="utf-8"?>
<!-- Generator: Adobe Illustrator 20.0.0, SVG Export Plug-In . SVG Version: 6.00 Build 0)  -->
<svg version="1.1" id="Layer_1" xmlns="http://www.w3.org/2000/svg" xmlns:xlink="http://www.w3.org/1999/xlink" x="0px" y="0px"
	 viewBox="0 0 63.5 64.5" style="enable-background:new 0 0 63.5 64.5;" xml:space="preserve">
<style type="text/css">
	.st0{fill:#FFFFFF;}
</style>
<path class="st0" d="M0,0v60.9c0,2,1.6,3.6,3.6,3.6h59.9V3.6c0-2-1.6-3.6-3.6-3.6L0,0L0,0z M18,55.7H8.1V23.9H18V55.7z M14.4,19.7
	c-4.5,1-8.4-2.9-7.4-7.4c0.5-2.2,2.3-4.1,4.6-4.6c4.5-1,8.4,2.9,7.4,7.4C18.5,17.4,16.6,19.2,14.4,19.7z M54.9,55.7h-10V37.4
	c0-8.8-10.8-5.6-10.8,0.7v17.6h-9.9V23.9h9.3l0.1,4.2c2.8-3.6,6.2-5.6,10.4-5.2c8.4,0,10.9,6.2,10.9,10.9V55.7z"/>
</svg>
