<?xml version="1.0" encoding="utf-8"?>
<!-- Generator: Adobe Illustrator 20.0.0, SVG Export Plug-In . SVG Version: 6.00 Build 0)  -->
<svg version="1.1" id="Layer_1" xmlns="http://www.w3.org/2000/svg" xmlns:xlink="http://www.w3.org/1999/xlink" x="0px" y="0px"
	 viewBox="0 0 50.7 56.1" style="enable-background:new 0 0 50.7 56.1;" xml:space="preserve">
<style type="text/css">
	.st0{fill:#FFFFFF;enable-background:new    ;}
</style>
<title>icon-github</title>
<path class="st0" d="M36.3,54.8c-0.2-12.4,1-13-2.2-17.4c9.4-0.7,13.7-5,15.6-10.4s1.6-13-2.7-17.2c1.2-3.2,1-6.7-0.5-9.8
	c-3.1-0.1-6.4,1.2-10.1,3.9c-6-1.7-12.4-1.7-18.5,0C14.1,1.1,10.9-0.1,7.9,0C6.4,2.9,6.3,6.2,7.4,9.7c-3.7,3.9-4.6,9-3.4,15
	c1.6,6.6,5.6,11.8,16.3,13c-1.2,1.3-2.1,2.9-2.4,4.7c-1.3,1.2-3.8,1.4-6.4,0.9c-3.1-0.9-3.9-4.7-6.5-6.3c-1.2-0.9-2.7-1.4-4.2-1.2
	c-1,0.2-1,0.8,0,1.6c4.2,2.8,4.4,5.4,5.4,7.1c1.6,2.4,4.3,3.7,7.2,3.7c1.5,0,3.1-0.1,4.6-0.4l-0.1,7.1c-0.1,1-0.8,1.4-1.9,1.4h21.8
	C36.9,56.1,36.3,55.6,36.3,54.8z M4,37.4c-0.2,0.2-0.4,0.2-0.6,0c-0.2-0.1-0.3-0.4-0.2-0.6c0.2-0.2,0.4-0.2,0.6,0
	C4,37,4.1,37.2,4,37.4z M5.5,38.8C5.2,39,5,39,4.8,38.8c-0.2-0.2-0.2-0.5-0.1-0.7c0.2-0.2,0.5-0.1,0.7,0.1
	C5.6,38.3,5.6,38.6,5.5,38.8L5.5,38.8z M6.8,41c-0.4,0.1-0.7-0.2-0.8-0.5c0-0.2,0-0.5,0.2-0.6C6.6,39.8,7,40.1,7,40.4
	C7.1,40.7,7,40.9,6.8,41z M8.9,43c-0.2,0.2-0.6,0.2-0.8,0c-0.3-0.2-0.3-0.5-0.2-0.8C8.2,42,8.5,42,8.8,42.3C9,42.4,9.1,42.8,8.9,43
	L8.9,43z M10.9,44.7c-0.3-0.2-0.4-0.5-0.2-0.8c0.2-0.3,0.5-0.4,0.8-0.2c0.2,0.1,0.3,0.4,0.3,0.7C11.6,44.7,11.2,44.8,10.9,44.7
	L10.9,44.7z M14,45.1c-0.3,0.1-0.7,0-0.8-0.3c-0.1-0.3,0-0.7,0.3-0.8c0.1-0.1,0.3-0.1,0.5,0c0.3-0.1,0.6,0.1,0.7,0.5
	c0.1,0.3-0.1,0.6-0.5,0.7C14.2,45.2,14.1,45.2,14,45.1L14,45.1z M16.8,44.7c-0.4,0-0.8-0.2-0.8-0.5s0.3-0.5,0.8-0.5s0.8,0.2,0.8,0.5
	S17.2,44.8,16.8,44.7L16.8,44.7z"/>
</svg>
