<svg id="Layer_1" data-name="Layer 1" xmlns="http://www.w3.org/2000/svg" viewBox="0 0 50.7 56.11"><defs><style>.cls-1{fill:#fff;opacity:0.76;}</style></defs><title>icon-github</title><path class="cls-1" d="M36.26,54.83c-.22-12.39,1-13-2.25-17.38,9.38-.65,13.72-5,15.58-10.42s1.6-13-2.69-17.25A12.46,12.46,0,0,0,46.35,0C43.26-.08,39.9,1.19,36.26,3.87a33.4,33.4,0,0,0-18.45,0C14.13,1.15,10.86-.07,7.94,0,6.36,2.93,6.35,6.18,7.4,9.66c-3.65,3.86-4.59,9-3.4,15,1.59,6.63,5.56,11.83,16.27,13a8.85,8.85,0,0,0-2.36,4.72c-1.33,1.17-3.8,1.36-6.44.86-3.05-.9-3.94-4.67-6.54-6.33A5.54,5.54,0,0,0,.75,35.73c-1,.18-1,.8,0,1.61C5,40.18,5.19,42.76,6.11,44.42a8.48,8.48,0,0,0,7.19,3.65,23.37,23.37,0,0,0,4.57-.44l-.07,7.09c-.07,1-.8,1.36-1.93,1.39H37.66A1.39,1.39,0,0,1,36.26,54.83ZM4,37.43a.44.44,0,0,1-.61,0,.44.44,0,0,1-.21-.57.44.44,0,0,1,.61,0A.44.44,0,0,1,4,37.43Zm1.46,1.42a.49.49,0,0,1-.67-.09.49.49,0,0,1-.09-.67.49.49,0,0,1,.67.09A.49.49,0,0,1,5.48,38.85Zm1.39,2.2a.68.68,0,0,1-.6-1.16.68.68,0,0,1,.6,1.16Zm2,2A.59.59,0,0,1,8.08,43a.59.59,0,0,1-.15-.81.59.59,0,0,1,.82.07A.59.59,0,0,1,8.89,43.08Zm2,1.67a.6.6,0,1,1,.88-.38A.69.69,0,0,1,10.88,44.74Zm3.12.39A.6.6,0,1,1,14,44a.6.6,0,1,1,0,1.17Zm2.78-.36c-.42,0-.76-.24-.76-.54s.34-.54.76-.54.76.24.76.54S17.2,44.77,16.77,44.77Z"/></svg>